<?xml version="1.0" standalone="no"?>

<svg version="1.0" xmlns="http://www.w3.org/2000/svg"
 width="880.000000pt" height="744.000000pt" viewBox="0 0 880.000000 744.000000"
>

<g transform="translate(0.000000,744.000000) scale(0.100000,-0.100000)"
fill="#1E293B" stroke="none">
<path fill="#1E293B" d="M2985 6998 c-207 -18 -443 -66 -575 -118 -30 -12 -69 -26 -86 -31
-17 -5 -89 -38 -160 -74 -252 -126 -518 -359 -645 -566 -19 -30 -39 -64 -46
-75 -25 -39 -106 -212 -145 -309 -60 -150 -67 -165 -77 -165 -5 0 -20 -17 -32
-37 -13 -21 -75 -92 -138 -159 -187 -194 -265 -284 -315 -362 -45 -71 -126
-238 -126 -261 0 -6 -4 -19 -10 -29 -10 -18 -59 -166 -80 -242 -7 -25 -16 -56
-21 -70 -25 -73 -69 -282 -69 -325 0 -17 -6 -39 -14 -50 -30 -44 -47 -327 -42
-735 3 -335 5 -362 30 -482 62 -304 200 -597 321 -679 40 -27 43 -35 17 -44
-11 -3 -24 -15 -30 -28 -6 -12 -55 -73 -110 -134 -203 -231 -220 -301 -229
-966 l-6 -417 1673 2 1674 3 11 45 c7 25 21 68 33 95 11 28 30 84 42 125 13
41 29 92 36 113 8 20 14 51 14 67 0 20 7 33 23 41 12 7 48 31 79 55 31 23 69
50 85 59 15 8 42 25 58 35 37 25 172 90 186 90 5 0 33 15 62 33 29 18 59 36
67 40 8 4 65 36 125 70 89 50 114 70 130 100 17 33 18 39 5 47 -34 22 -216 5
-285 -26 -62 -27 -202 -62 -215 -54 -9 5 4 28 40 76 29 38 58 74 65 79 7 6 16
21 20 35 4 14 16 34 26 45 16 18 89 149 89 161 0 12 -28 1 -74 -29 -28 -18
-71 -42 -96 -52 -25 -11 -62 -30 -84 -43 -49 -30 -67 -18 -44 30 44 91 99 286
109 388 8 88 32 195 47 212 6 7 19 36 30 65 11 29 37 83 58 120 22 37 48 88
59 114 11 25 30 58 42 73 19 24 27 27 55 21 34 -8 69 -27 103 -56 11 -9 31
-20 45 -24 14 -4 33 -14 43 -23 13 -12 38 -15 104 -13 48 1 92 6 97 10 6 5 36
14 67 20 64 14 88 9 259 -44 63 -20 159 -47 213 -61 54 -13 122 -35 151 -49
29 -14 69 -25 89 -25 20 0 78 -16 129 -36 51 -20 125 -46 163 -59 87 -29 142
-53 270 -115 55 -27 116 -53 135 -56 19 -4 46 -13 60 -21 14 -7 33 -13 42 -13
9 0 20 -4 23 -10 3 -5 13 -10 22 -10 9 0 81 -32 160 -71 l144 -71 47 17 c47
17 112 30 112 24 5 -47 15 -91 27 -119 8 -19 21 -55 30 -80 8 -25 20 -52 27
-60 30 -38 63 -165 45 -176 -4 -2 -1 -23 7 -46 23 -65 18 -141 -12 -200 -14
-28 -33 -73 -40 -99 -8 -27 -26 -61 -39 -78 -32 -38 -89 -213 -109 -338 -9
-54 -23 -125 -30 -158 -8 -33 -20 -85 -27 -115 -6 -30 -14 -61 -16 -67 -4 -10
151 -13 756 -13 l761 0 0 345 0 344 -27 15 c-31 16 -91 77 -115 116 -25 41
-293 187 -503 273 -342 141 -380 158 -394 171 -15 16 -7 36 15 36 8 0 14 3 14
8 0 4 21 16 48 26 26 10 56 27 67 36 11 10 35 25 52 34 52 26 97 71 142 139
60 92 79 157 90 312 10 132 21 171 51 179 8 2 53 10 100 16 186 26 234 67 199
169 -6 17 -20 36 -31 42 -34 18 -5 32 110 55 59 12 123 28 142 36 l35 15 -1
162 -1 162 -33 45 c-64 90 -165 127 -234 86 -40 -24 -51 -8 -16 23 28 25 25
67 -10 130 -17 30 -30 59 -30 65 0 7 25 40 56 73 110 122 195 267 244 422 l32
100 -4 255 c-3 219 -6 259 -21 285 -9 17 -26 55 -37 85 -18 50 -79 165 -124
233 -18 27 -18 27 3 27 62 0 146 -142 158 -267 9 -91 26 -79 21 15 -3 64 -9
90 -41 156 -34 71 -36 82 -27 117 13 47 -1 179 -25 236 -22 53 -41 70 -94 88
-44 14 -52 23 -121 128 -90 138 -159 219 -219 256 -25 15 -67 48 -92 73 -75
72 -235 113 -423 106 l-100 -3 -37 110 c-21 61 -41 130 -44 155 -12 79 -82
207 -156 282 -59 60 -83 76 -221 142 -170 82 -296 133 -403 164 -352 101 -842
121 -1075 42 -83 -27 -203 -92 -305 -163 -44 -31 -118 -83 -165 -115 -47 -33
-132 -88 -189 -122 l-105 -63 -18 24 c-103 130 -220 230 -343 291 -82 41 -227
91 -305 106 -30 6 -100 20 -155 31 -191 37 -211 41 -314 51 -119 12 -291 11
-436 -2z m75 -1492 c239 -44 434 -77 508 -88 45 -6 82 -15 82 -19 0 -4 -26
-28 -57 -52 -32 -25 -80 -69 -108 -99 -99 -107 -134 -156 -190 -266 -44 -88
-47 -92 -73 -86 -47 11 -123 45 -412 181 -41 20 -160 75 -265 123 -104 48
-208 96 -230 107 l-40 21 40 18 c22 9 65 30 96 46 31 15 63 28 70 28 8 0 25 9
39 20 14 11 31 20 39 20 7 0 36 12 64 26 28 14 67 29 86 33 55 12 256 4 351
-13z m976 -98 c3 -4 18 -8 34 -8 27 0 70 -32 70 -52 0 -4 7 -8 15 -8 9 0 35
-18 57 -40 23 -22 47 -40 53 -40 7 0 28 -16 48 -35 20 -19 40 -35 45 -35 5 0
20 -9 34 -20 23 -18 39 -25 138 -61 58 -21 104 -39 123 -50 21 -12 196 -39
252 -39 52 0 127 -21 194 -54 30 -14 63 -26 72 -26 21 0 80 -74 129 -161 19
-34 43 -64 52 -66 9 -3 22 -18 28 -34 7 -16 16 -29 20 -29 13 0 32 -165 26
-224 -11 -109 -56 -263 -74 -252 -9 5 -69 -61 -92 -102 -40 -70 -38 -68 -99
-64 -48 3 -62 0 -94 -22 -21 -14 -45 -26 -53 -26 -8 0 -24 -5 -35 -11 -11 -5
-28 -7 -39 -4 -20 6 -56 61 -66 100 -3 14 -10 25 -15 25 -5 0 -9 35 -9 78 0
42 -5 95 -10 117 -6 22 -14 79 -19 126 -16 148 -84 280 -165 319 -22 11 -63
33 -91 50 -99 58 -206 94 -375 125 -42 7 -88 18 -103 24 -48 18 -258 34 -387
29 -94 -4 -145 -1 -203 11 l-76 16 32 57 c65 115 166 218 292 299 42 27 165
84 200 92 32 7 85 4 91 -5z m3826 -191 c50 -26 61 -28 89 -18 39 13 64 -2 131
-81 100 -119 178 -284 213 -453 23 -107 16 -165 -19 -165 -31 0 -37 -25 -25
-98 10 -61 10 -73 -4 -86 -8 -9 -21 -33 -28 -53 -26 -81 -87 -177 -113 -179
-19 -1 -69 37 -113 84 -38 43 -41 51 -48 121 -13 146 -62 361 -102 441 -43 88
-114 164 -162 173 -53 11 -161 7 -221 -7 -68 -16 -158 -66 -211 -116 -8 -8
-38 -36 -65 -61 -77 -72 -117 -119 -154 -183 -19 -32 -47 -71 -62 -87 -16 -15
-28 -31 -28 -35 0 -4 -6 -15 -13 -23 -7 -9 -22 -36 -32 -61 -10 -25 -32 -76
-50 -115 -18 -38 -38 -88 -45 -110 -7 -22 -19 -53 -28 -70 -14 -27 -33 -125
-33 -170 0 -126 7 -215 19 -215 26 0 10 -16 -19 -18 -17 -1 -28 2 -25 7 4 5
-8 13 -26 17 -78 17 -235 142 -312 249 -113 156 -158 262 -196 462 -21 108
-21 116 -6 190 9 43 23 83 31 89 9 6 37 12 63 12 63 1 142 11 167 21 22 9 83
26 155 43 25 5 49 14 55 19 5 5 15 9 23 9 16 0 50 15 187 81 55 27 105 49 111
49 6 0 22 9 36 19 13 11 61 38 106 61 45 23 84 46 87 50 3 5 34 18 69 30 35
11 89 36 120 55 30 18 73 39 93 45 21 7 47 18 58 25 11 6 38 18 60 25 22 7 52
21 67 31 14 11 33 19 41 19 9 0 18 4 22 9 9 16 76 0 137 -32z m-5586 -40 c203
-94 249 -116 413 -194 73 -34 135 -63 137 -63 3 0 48 -21 102 -46 53 -25 112
-53 130 -61 36 -17 39 -25 17 -43 -8 -7 -15 -17 -15 -23 0 -6 -10 -21 -22 -34
-21 -22 -22 -32 -23 -251 -2 -268 -1 -252 -20 -252 -7 0 -18 6 -22 13 -4 6
-28 29 -53 49 -25 20 -62 52 -82 70 -20 18 -65 56 -100 83 -35 28 -64 53 -66
58 -2 4 -8 7 -14 7 -5 0 -24 11 -42 25 -18 14 -37 25 -43 25 -5 0 -18 10 -29
21 -10 12 -41 38 -69 59 -27 21 -66 52 -85 69 -19 18 -42 38 -50 46 -8 7 -47
39 -87 72 -45 37 -90 86 -123 135 -29 42 -63 84 -76 93 -13 8 -24 21 -25 28 0
14 -34 44 -96 88 -50 34 -54 49 -15 49 16 0 32 3 35 7 13 12 102 40 133 42 20
1 89 -26 190 -72z m1433 -487 c97 -62 133 -130 97 -185 -14 -22 -24 -25 -74
-25 -70 0 -133 29 -174 81 -34 43 -30 84 12 129 37 39 79 39 139 0z m3626 -40
c11 -13 20 -41 23 -75 l4 -55 -48 15 c-27 8 -52 15 -55 15 -14 0 -17 30 -7 62
6 18 12 39 14 46 5 19 49 14 69 -8z m-1650 -161 c33 -5 130 -12 217 -16 l156
-6 6 -30 c3 -16 6 -44 6 -61 0 -17 7 -62 16 -101 31 -143 30 -129 3 -112 -13
8 -69 30 -124 47 -90 29 -112 33 -220 33 -77 0 -141 -6 -177 -16 -66 -17 -63
-24 -43 88 8 44 14 106 15 139 l0 59 43 -8 c23 -3 69 -11 102 -16z m2031 -144
c26 -64 12 -165 -26 -185 -26 -14 -100 -12 -130 3 -14 7 -26 21 -28 31 -12 62
45 146 98 146 19 0 34 7 42 20 18 28 27 25 44 -15z m-3239 -92 c30 -31 34 -42
29 -71 -12 -79 -49 -98 -131 -67 -63 25 -82 82 -45 143 18 29 24 32 66 32 41
0 51 -5 81 -37z m2717 -82 c3 -4 -1 -17 -9 -27 -14 -18 -14 -18 -15 9 0 26 13
36 24 18z m-1249 -56 c87 -22 106 -35 127 -85 22 -50 55 -90 75 -90 23 0 14
29 -23 70 -41 45 -37 50 13 19 27 -17 131 -155 152 -202 1 -5 -14 -5 -35 -1
-22 4 -48 7 -59 6 -24 -2 -206 38 -220 48 -5 4 -28 11 -49 15 -22 3 -88 26
-148 50 -116 47 -203 73 -258 77 -80 6 -19 47 130 89 81 22 216 24 295 4z
m910 -515 c-3 -5 -10 -10 -16 -10 -5 0 -9 5 -9 10 0 6 7 10 16 10 8 0 12 -4 9
-10z m-588 -326 c-3 -3 -12 -4 -19 -1 -8 3 -5 6 6 6 11 1 17 -2 13 -5z m-1072
-464 c3 -6 -1 -7 -9 -4 -18 7 -21 14 -7 14 6 0 13 -4 16 -10z"/>
</g>
</svg>
